<svg xmlns="http://www.w3.org/2000/svg" xmlns:xlink="http://www.w3.org/1999/xlink" version="1.1" width="16" height="16" viewBox="0 0 256 256" xml:space="preserve">

<defs>
</defs>
<g style="stroke: none; stroke-width: 0; stroke-dasharray: none; stroke-linecap: butt; stroke-linejoin: miter; stroke-miterlimit: 10; fill: none; fill-rule: nonzero; opacity: 1;" transform="translate(1.4065934065934016 1.4065934065934016) scale(2.81 2.81)" >
	<path d="M 45 0 C 28.967 0 14.902 8.392 6.932 21.015 c 2.729 1.97 6.069 3.145 9.693 3.145 h 32.399 c 17.08 0 32.123 8.704 40.948 21.915 C 89.981 45.716 90 45.36 90 45 C 90 20.147 69.853 0 45 0 z" style="stroke: none; stroke-width: 1; stroke-dasharray: none; stroke-linecap: butt; stroke-linejoin: miter; stroke-miterlimit: 10; fill: rgb(245,119,48); fill-rule: nonzero; opacity: 1;" transform=" matrix(1 0 0 1 0 0) " stroke-linecap="round" />
	<path d="M 90 45 c 0 -1.207 -0.062 -2.399 -0.155 -3.583 C 81.002 27.735 66.02 20.885 49.024 20.885 H 16.625 c -3.159 0 -6.101 -0.494 -8.614 -1.504 C 3.387 26.046 0.51 34.014 0.063 42.629 c 9.023 11.127 22.794 18.247 38.236 18.247 h 0.744 c 9.038 0 13.101 3.942 13.329 12.925 c 0.004 -0.143 0.022 -0.282 0.022 -0.426 c 0 8.417 -3.516 15.355 -11.172 16.456 C 42.469 89.934 43.726 90 45 90 C 69.853 90 90 69.853 90 45 z" style="stroke: none; stroke-width: 1; stroke-dasharray: none; stroke-linecap: butt; stroke-linejoin: miter; stroke-miterlimit: 10; fill: rgb(235,114,46); fill-rule: nonzero; opacity: 1;" transform=" matrix(1 0 0 1 0 0) " stroke-linecap="round" />
	<path d="M 41.27 89.834 c 7.988 -1.072 14.169 -7.802 14.378 -16.034 c -0.228 -8.983 -7.566 -16.2 -16.604 -16.2 h -0.744 c -15.296 0 -28.947 -6.992 -37.973 -17.938 C 0.119 41.414 0 43.193 0 45 C 0 68.595 18.164 87.936 41.27 89.834 z" style="stroke: none; stroke-width: 1; stroke-dasharray: none; stroke-linecap: butt; stroke-linejoin: miter; stroke-miterlimit: 10; fill: rgb(222,108,44); fill-rule: nonzero; opacity: 1;" transform=" matrix(1 0 0 1 0 0) " stroke-linecap="round" />
	<path d="M 45.018 45.805 c 7.127 -0.002 12.9 -5.782 12.898 -12.907 c -0.002 -7.127 -5.782 -12.9 -12.907 -12.898 s -12.9 5.782 -12.898 12.907 C 32.12 40.03 37.895 45.8 45.018 45.805 M 45.018 27.564 c 2.952 0 5.345 2.393 5.345 5.345 s -2.393 5.343 -5.345 5.343 c -2.952 0 -5.345 -2.393 -5.345 -5.345 C 39.677 29.957 42.068 27.566 45.018 27.564 L 45.018 27.564 z M 50.235 56.332 c 2.655 -0.602 5.189 -1.653 7.495 -3.104 c 1.757 -1.133 2.262 -3.474 1.129 -5.23 c -1.115 -1.729 -3.41 -2.251 -5.161 -1.173 c -5.313 3.322 -12.059 3.322 -17.372 0 c -1.763 -1.106 -4.092 -0.577 -5.203 1.184 c -1.115 1.763 -0.591 4.099 1.175 5.214 c 0.002 0 0.005 0.002 0.005 0.002 c 2.304 1.448 4.837 2.499 7.49 3.104 l -7.215 7.215 c -1.437 1.517 -1.37 3.913 0.149 5.35 c 1.46 1.379 3.741 1.379 5.201 0 l 7.086 -7.09 l 7.09 7.09 c 1.476 1.474 3.865 1.474 5.341 0 c 1.474 -1.476 1.474 -3.865 0 -5.341 L 50.235 56.332 z" style="stroke: none; stroke-width: 1; stroke-dasharray: none; stroke-linecap: butt; stroke-linejoin: miter; stroke-miterlimit: 10; fill: rgb(255,255,255); fill-rule: nonzero; opacity: 1;" transform=" matrix(1 0 0 1 0 0) " stroke-linecap="round" />
</g>
</svg>